<svg width="100%" height="160" viewBox="0 0 800 160" xmlns="http://www.w3.org/2000/svg">
<defs>
<style>
  .matrix-bg { fill: #0d1117; }
  text { font-family: "Courier New", monospace; font-size: 14px; }
</style>
</defs>
<rect class="matrix-bg" width="800" height="160" rx="8"/>
<g transform="translate(8,-70)"><text x="0" y="0" fill="#e6ffe6" opacity="1.0">ｾ</text><text x="0" y="16" fill="#00ff41" opacity="0.75">ｽ</text><text x="0" y="32" fill="#00ff41" opacity="0.55">ｷ</text><text x="0" y="48" fill="#00ff41" opacity="0.4">ｵ</text><text x="0" y="64" fill="#00ff41" opacity="0.28">ﾚ</text><text x="0" y="80" fill="#00ff41" opacity="0.18">ﾑ</text><text x="0" y="96" fill="#00ff41" opacity="0.1">ｴ</text><animateTransform attributeName="transform" attributeType="XML" type="translate" values="0,-140; 0,200" dur="5.56s" begin="-6.82s" repeatCount="indefinite"/></g>
<g transform="translate(24,-23)"><text x="0" y="0" fill="#e6ffe6" opacity="1.0">ｼ</text><text x="0" y="16" fill="#00ff41" opacity="0.75">ｽ</text><text x="0" y="32" fill="#00ff41" opacity="0.55">ﾏ</text><text x="0" y="48" fill="#00ff41" opacity="0.4">ﾕ</text><text x="0" y="64" fill="#00ff41" opacity="0.28">1</text><text x="0" y="80" fill="#00ff41" opacity="0.18">ﾒ</text><text x="0" y="96" fill="#00ff41" opacity="0.1">ｻ</text><animateTransform attributeName="transform" attributeType="XML" type="translate" values="0,-140; 0,200" dur="5.36s" begin="-6.78s" repeatCount="indefinite"/></g>
<g transform="translate(40,-107)"><text x="0" y="0" fill="#e6ffe6" opacity="1.0">ｽ</text><text x="0" y="16" fill="#00ff41" opacity="0.75">ﾋ</text><text x="0" y="32" fill="#00ff41" opacity="0.55">ﾔ</text><text x="0" y="48" fill="#00ff41" opacity="0.4">ﾀ</text><text x="0" y="64" fill="#00ff41" opacity="0.28">0</text><text x="0" y="80" fill="#00ff41" opacity="0.18">ｹ</text><text x="0" y="96" fill="#00ff41" opacity="0.1">ﾛ</text><animateTransform attributeName="transform" attributeType="XML" type="translate" values="0,-140; 0,200" dur="5.86s" begin="-2.09s" repeatCount="indefinite"/></g>
<g transform="translate(56,-55)"><text x="0" y="0" fill="#e6ffe6" opacity="1.0">ﾄ</text><text x="0" y="16" fill="#00ff41" opacity="0.75">ｵ</text><text x="0" y="32" fill="#00ff41" opacity="0.55">ｴ</text><text x="0" y="48" fill="#00ff41" opacity="0.4">ﾇ</text><text x="0" y="64" fill="#00ff41" opacity="0.28">ｵ</text><text x="0" y="80" fill="#00ff41" opacity="0.18">ﾅ</text><text x="0" y="96" fill="#00ff41" opacity="0.1">ﾅ</text><animateTransform attributeName="transform" attributeType="XML" type="translate" values="0,-140; 0,200" dur="4.69s" begin="-5.05s" repeatCount="indefinite"/></g>
<g transform="translate(72,-117)"><text x="0" y="0" fill="#e6ffe6" opacity="1.0">ﾑ</text><text x="0" y="16" fill="#00ff41" opacity="0.75">ｶ</text><text x="0" y="32" fill="#00ff41" opacity="0.55">ﾇ</text><text x="0" y="48" fill="#00ff41" opacity="0.4">ｴ</text><text x="0" y="64" fill="#00ff41" opacity="0.28">ﾒ</text><text x="0" y="80" fill="#00ff41" opacity="0.18">ﾁ</text><text x="0" y="96" fill="#00ff41" opacity="0.1">ﾗ</text><animateTransform attributeName="transform" attributeType="XML" type="translate" values="0,-140; 0,200" dur="5.41s" begin="-1.35s" repeatCount="indefinite"/></g>
<g transform="translate(88,-147)"><text x="0" y="0" fill="#e6ffe6" opacity="1.0">ｻ</text><text x="0" y="16" fill="#00ff41" opacity="0.75">ﾜ</text><text x="0" y="32" fill="#00ff41" opacity="0.55">ｳ</text><text x="0" y="48" fill="#00ff41" opacity="0.4">ｱ</text><text x="0" y="64" fill="#00ff41" opacity="0.28">ﾙ</text><text x="0" y="80" fill="#00ff41" opacity="0.18">ｽ</text><text x="0" y="96" fill="#00ff41" opacity="0.1">ﾁ</text><animateTransform attributeName="transform" attributeType="XML" type="translate" values="0,-140; 0,200" dur="5.47s" begin="-0.97s" repeatCount="indefinite"/></g>
<g transform="translate(104,-25)"><text x="0" y="0" fill="#e6ffe6" opacity="1.0">ﾇ</text><text x="0" y="16" fill="#00ff41" opacity="0.75">ﾀ</text><text x="0" y="32" fill="#00ff41" opacity="0.55">ﾌ</text><text x="0" y="48" fill="#00ff41" opacity="0.4">ﾗ</text><text x="0" y="64" fill="#00ff41" opacity="0.28">ﾆ</text><text x="0" y="80" fill="#00ff41" opacity="0.18">ｹ</text><text x="0" y="96" fill="#00ff41" opacity="0.1">ﾆ</text><animateTransform attributeName="transform" attributeType="XML" type="translate" values="0,-140; 0,200" dur="6.94s" begin="-1.01s" repeatCount="indefinite"/></g>
<g transform="translate(120,-18)"><text x="0" y="0" fill="#e6ffe6" opacity="1.0">ﾕ</text><text x="0" y="16" fill="#00ff41" opacity="0.75">ﾗ</text><text x="0" y="32" fill="#00ff41" opacity="0.55">ｹ</text><text x="0" y="48" fill="#00ff41" opacity="0.4">ﾑ</text><text x="0" y="64" fill="#00ff41" opacity="0.28">ﾝ</text><text x="0" y="80" fill="#00ff41" opacity="0.18">ｾ</text><text x="0" y="96" fill="#00ff41" opacity="0.1">ｹ</text><animateTransform attributeName="transform" attributeType="XML" type="translate" values="0,-140; 0,200" dur="4.42s" begin="-2.31s" repeatCount="indefinite"/></g>
<g transform="translate(136,-142)"><text x="0" y="0" fill="#e6ffe6" opacity="1.0">ｽ</text><text x="0" y="16" fill="#00ff41" opacity="0.75">ﾚ</text><text x="0" y="32" fill="#00ff41" opacity="0.55">ﾃ</text><text x="0" y="48" fill="#00ff41" opacity="0.4">ｲ</text><text x="0" y="64" fill="#00ff41" opacity="0.28">ｽ</text><text x="0" y="80" fill="#00ff41" opacity="0.18">ｱ</text><text x="0" y="96" fill="#00ff41" opacity="0.1">ﾃ</text><animateTransform attributeName="transform" attributeType="XML" type="translate" values="0,-140; 0,200" dur="4.85s" begin="-5.11s" repeatCount="indefinite"/></g>
<g transform="translate(152,-145)"><text x="0" y="0" fill="#e6ffe6" opacity="1.0">ﾜ</text><text x="0" y="16" fill="#00ff41" opacity="0.75">ﾃ</text><text x="0" y="32" fill="#00ff41" opacity="0.55">ｼ</text><text x="0" y="48" fill="#00ff41" opacity="0.4">ﾘ</text><text x="0" y="64" fill="#00ff41" opacity="0.28">ﾎ</text><text x="0" y="80" fill="#00ff41" opacity="0.18">ﾈ</text><text x="0" y="96" fill="#00ff41" opacity="0.1">ﾘ</text><animateTransform attributeName="transform" attributeType="XML" type="translate" values="0,-140; 0,200" dur="4.6s" begin="-6.54s" repeatCount="indefinite"/></g>
<g transform="translate(168,-63)"><text x="0" y="0" fill="#e6ffe6" opacity="1.0">ﾒ</text><text x="0" y="16" fill="#00ff41" opacity="0.75">ﾑ</text><text x="0" y="32" fill="#00ff41" opacity="0.55">ｿ</text><text x="0" y="48" fill="#00ff41" opacity="0.4">ﾔ</text><text x="0" y="64" fill="#00ff41" opacity="0.28">ﾊ</text><text x="0" y="80" fill="#00ff41" opacity="0.18">ﾔ</text><text x="0" y="96" fill="#00ff41" opacity="0.1">ﾈ</text><animateTransform attributeName="transform" attributeType="XML" type="translate" values="0,-140; 0,200" dur="4.84s" begin="-5.15s" repeatCount="indefinite"/></g>
<g transform="translate(184,-35)"><text x="0" y="0" fill="#e6ffe6" opacity="1.0">ﾏ</text><text x="0" y="16" fill="#00ff41" opacity="0.75">ﾎ</text><text x="0" y="32" fill="#00ff41" opacity="0.55">ｴ</text><text x="0" y="48" fill="#00ff41" opacity="0.4">ｲ</text><text x="0" y="64" fill="#00ff41" opacity="0.28">ｶ</text><text x="0" y="80" fill="#00ff41" opacity="0.18">ｸ</text><text x="0" y="96" fill="#00ff41" opacity="0.1">ﾗ</text><animateTransform attributeName="transform" attributeType="XML" type="translate" values="0,-140; 0,200" dur="4.45s" begin="-0.02s" repeatCount="indefinite"/></g>
<g transform="translate(200,-152)"><text x="0" y="0" fill="#e6ffe6" opacity="1.0">ｳ</text><text x="0" y="16" fill="#00ff41" opacity="0.75">ﾇ</text><text x="0" y="32" fill="#00ff41" opacity="0.55">ﾇ</text><text x="0" y="48" fill="#00ff41" opacity="0.4">ﾕ</text><text x="0" y="64" fill="#00ff41" opacity="0.28">ﾌ</text><text x="0" y="80" fill="#00ff41" opacity="0.18">ﾐ</text><text x="0" y="96" fill="#00ff41" opacity="0.1">ｿ</text><animateTransform attributeName="transform" attributeType="XML" type="translate" values="0,-140; 0,200" dur="3.64s" begin="-2.24s" repeatCount="indefinite"/></g>
<g transform="translate(216,-2)"><text x="0" y="0" fill="#e6ffe6" opacity="1.0">ﾚ</text><text x="0" y="16" fill="#00ff41" opacity="0.75">ﾝ</text><text x="0" y="32" fill="#00ff41" opacity="0.55">ｶ</text><text x="0" y="48" fill="#00ff41" opacity="0.4">ﾚ</text><text x="0" y="64" fill="#00ff41" opacity="0.28">ﾑ</text><text x="0" y="80" fill="#00ff41" opacity="0.18">ﾀ</text><text x="0" y="96" fill="#00ff41" opacity="0.1">ﾘ</text><animateTransform attributeName="transform" attributeType="XML" type="translate" values="0,-140; 0,200" dur="6.88s" begin="-0.97s" repeatCount="indefinite"/></g>
<g transform="translate(232,-40)"><text x="0" y="0" fill="#e6ffe6" opacity="1.0">ﾌ</text><text x="0" y="16" fill="#00ff41" opacity="0.75">0</text><text x="0" y="32" fill="#00ff41" opacity="0.55">ﾝ</text><text x="0" y="48" fill="#00ff41" opacity="0.4">ﾝ</text><text x="0" y="64" fill="#00ff41" opacity="0.28">ｿ</text><text x="0" y="80" fill="#00ff41" opacity="0.18">ﾏ</text><text x="0" y="96" fill="#00ff41" opacity="0.1">ｺ</text><animateTransform attributeName="transform" attributeType="XML" type="translate" values="0,-140; 0,200" dur="4.36s" begin="-4.95s" repeatCount="indefinite"/></g>
<g transform="translate(248,-160)"><text x="0" y="0" fill="#e6ffe6" opacity="1.0">ﾂ</text><text x="0" y="16" fill="#00ff41" opacity="0.75">ﾗ</text><text x="0" y="32" fill="#00ff41" opacity="0.55">ﾏ</text><text x="0" y="48" fill="#00ff41" opacity="0.4">ﾕ</text><text x="0" y="64" fill="#00ff41" opacity="0.28">ｻ</text><text x="0" y="80" fill="#00ff41" opacity="0.18">ｸ</text><text x="0" y="96" fill="#00ff41" opacity="0.1">ﾆ</text><animateTransform attributeName="transform" attributeType="XML" type="translate" values="0,-140; 0,200" dur="5.03s" begin="-6.26s" repeatCount="indefinite"/></g>
<g transform="translate(264,-135)"><text x="0" y="0" fill="#e6ffe6" opacity="1.0">0</text><text x="0" y="16" fill="#00ff41" opacity="0.75">ﾕ</text><text x="0" y="32" fill="#00ff41" opacity="0.55">ﾃ</text><text x="0" y="48" fill="#00ff41" opacity="0.4">ﾎ</text><text x="0" y="64" fill="#00ff41" opacity="0.28">1</text><text x="0" y="80" fill="#00ff41" opacity="0.18">ｶ</text><text x="0" y="96" fill="#00ff41" opacity="0.1">ﾆ</text><animateTransform attributeName="transform" attributeType="XML" type="translate" values="0,-140; 0,200" dur="6.05s" begin="-3.22s" repeatCount="indefinite"/></g>
<g transform="translate(280,-78)"><text x="0" y="0" fill="#e6ffe6" opacity="1.0">ｾ</text><text x="0" y="16" fill="#00ff41" opacity="0.75">ｲ</text><text x="0" y="32" fill="#00ff41" opacity="0.55">ｾ</text><text x="0" y="48" fill="#00ff41" opacity="0.4">ﾓ</text><text x="0" y="64" fill="#00ff41" opacity="0.28">ｴ</text><text x="0" y="80" fill="#00ff41" opacity="0.18">ｴ</text><text x="0" y="96" fill="#00ff41" opacity="0.1">ﾝ</text><animateTransform attributeName="transform" attributeType="XML" type="translate" values="0,-140; 0,200" dur="6.51s" begin="-1.18s" repeatCount="indefinite"/></g>
<g transform="translate(296,-136)"><text x="0" y="0" fill="#e6ffe6" opacity="1.0">ｷ</text><text x="0" y="16" fill="#00ff41" opacity="0.75">ｷ</text><text x="0" y="32" fill="#00ff41" opacity="0.55">ﾙ</text><text x="0" y="48" fill="#00ff41" opacity="0.4">ﾍ</text><text x="0" y="64" fill="#00ff41" opacity="0.28">ﾒ</text><text x="0" y="80" fill="#00ff41" opacity="0.18">ｹ</text><text x="0" y="96" fill="#00ff41" opacity="0.1">ｿ</text><animateTransform attributeName="transform" attributeType="XML" type="translate" values="0,-140; 0,200" dur="4.94s" begin="-6.52s" repeatCount="indefinite"/></g>
<g transform="translate(312,-54)"><text x="0" y="0" fill="#e6ffe6" opacity="1.0">ﾑ</text><text x="0" y="16" fill="#00ff41" opacity="0.75">ﾝ</text><text x="0" y="32" fill="#00ff41" opacity="0.55">ﾛ</text><text x="0" y="48" fill="#00ff41" opacity="0.4">ｻ</text><text x="0" y="64" fill="#00ff41" opacity="0.28">ﾜ</text><text x="0" y="80" fill="#00ff41" opacity="0.18">ﾂ</text><text x="0" y="96" fill="#00ff41" opacity="0.1">ﾈ</text><animateTransform attributeName="transform" attributeType="XML" type="translate" values="0,-140; 0,200" dur="5.11s" begin="-2.75s" repeatCount="indefinite"/></g>
<g transform="translate(328,-112)"><text x="0" y="0" fill="#e6ffe6" opacity="1.0">ﾐ</text><text x="0" y="16" fill="#00ff41" opacity="0.75">ﾋ</text><text x="0" y="32" fill="#00ff41" opacity="0.55">ｶ</text><text x="0" y="48" fill="#00ff41" opacity="0.4">ｾ</text><text x="0" y="64" fill="#00ff41" opacity="0.28">ｽ</text><text x="0" y="80" fill="#00ff41" opacity="0.18">ｳ</text><text x="0" y="96" fill="#00ff41" opacity="0.1">ﾄ</text><animateTransform attributeName="transform" attributeType="XML" type="translate" values="0,-140; 0,200" dur="6.98s" begin="-2.45s" repeatCount="indefinite"/></g>
<g transform="translate(344,-150)"><text x="0" y="0" fill="#e6ffe6" opacity="1.0">ｽ</text><text x="0" y="16" fill="#00ff41" opacity="0.75">0</text><text x="0" y="32" fill="#00ff41" opacity="0.55">ｳ</text><text x="0" y="48" fill="#00ff41" opacity="0.4">ﾜ</text><text x="0" y="64" fill="#00ff41" opacity="0.28">ﾗ</text><text x="0" y="80" fill="#00ff41" opacity="0.18">ｲ</text><text x="0" y="96" fill="#00ff41" opacity="0.1">ｽ</text><animateTransform attributeName="transform" attributeType="XML" type="translate" values="0,-140; 0,200" dur="3.08s" begin="-3.12s" repeatCount="indefinite"/></g>
<g transform="translate(360,-84)"><text x="0" y="0" fill="#e6ffe6" opacity="1.0">ｳ</text><text x="0" y="16" fill="#00ff41" opacity="0.75">ﾏ</text><text x="0" y="32" fill="#00ff41" opacity="0.55">ｾ</text><text x="0" y="48" fill="#00ff41" opacity="0.4">ﾀ</text><text x="0" y="64" fill="#00ff41" opacity="0.28">ﾙ</text><text x="0" y="80" fill="#00ff41" opacity="0.18">ﾎ</text><text x="0" y="96" fill="#00ff41" opacity="0.1">ｼ</text><animateTransform attributeName="transform" attributeType="XML" type="translate" values="0,-140; 0,200" dur="3.27s" begin="-6.78s" repeatCount="indefinite"/></g>
<g transform="translate(376,-146)"><text x="0" y="0" fill="#e6ffe6" opacity="1.0">ﾓ</text><text x="0" y="16" fill="#00ff41" opacity="0.75">ﾍ</text><text x="0" y="32" fill="#00ff41" opacity="0.55">ｾ</text><text x="0" y="48" fill="#00ff41" opacity="0.4">ﾍ</text><text x="0" y="64" fill="#00ff41" opacity="0.28">ﾉ</text><text x="0" y="80" fill="#00ff41" opacity="0.18">ｻ</text><text x="0" y="96" fill="#00ff41" opacity="0.1">ｵ</text><animateTransform attributeName="transform" attributeType="XML" type="translate" values="0,-140; 0,200" dur="5.16s" begin="-1.94s" repeatCount="indefinite"/></g>
<g transform="translate(392,-108)"><text x="0" y="0" fill="#e6ffe6" opacity="1.0">ﾉ</text><text x="0" y="16" fill="#00ff41" opacity="0.75">ﾌ</text><text x="0" y="32" fill="#00ff41" opacity="0.55">ﾝ</text><text x="0" y="48" fill="#00ff41" opacity="0.4">ｲ</text><text x="0" y="64" fill="#00ff41" opacity="0.28">ﾚ</text><text x="0" y="80" fill="#00ff41" opacity="0.18">ﾘ</text><text x="0" y="96" fill="#00ff41" opacity="0.1">ﾘ</text><animateTransform attributeName="transform" attributeType="XML" type="translate" values="0,-140; 0,200" dur="3.39s" begin="-3.98s" repeatCount="indefinite"/></g>
<g transform="translate(408,-86)"><text x="0" y="0" fill="#e6ffe6" opacity="1.0">ｵ</text><text x="0" y="16" fill="#00ff41" opacity="0.75">ｾ</text><text x="0" y="32" fill="#00ff41" opacity="0.55">ｻ</text><text x="0" y="48" fill="#00ff41" opacity="0.4">ｻ</text><text x="0" y="64" fill="#00ff41" opacity="0.28">ﾑ</text><text x="0" y="80" fill="#00ff41" opacity="0.18">ﾋ</text><text x="0" y="96" fill="#00ff41" opacity="0.1">ｷ</text><animateTransform attributeName="transform" attributeType="XML" type="translate" values="0,-140; 0,200" dur="3.39s" begin="-4.18s" repeatCount="indefinite"/></g>
<g transform="translate(424,-63)"><text x="0" y="0" fill="#e6ffe6" opacity="1.0">ｳ</text><text x="0" y="16" fill="#00ff41" opacity="0.75">ﾋ</text><text x="0" y="32" fill="#00ff41" opacity="0.55">ﾒ</text><text x="0" y="48" fill="#00ff41" opacity="0.4">ｵ</text><text x="0" y="64" fill="#00ff41" opacity="0.28">ｲ</text><text x="0" y="80" fill="#00ff41" opacity="0.18">ﾘ</text><text x="0" y="96" fill="#00ff41" opacity="0.1">ﾑ</text><animateTransform attributeName="transform" attributeType="XML" type="translate" values="0,-140; 0,200" dur="4.69s" begin="-5.05s" repeatCount="indefinite"/></g>
<g transform="translate(440,-60)"><text x="0" y="0" fill="#e6ffe6" opacity="1.0">ｹ</text><text x="0" y="16" fill="#00ff41" opacity="0.75">ﾉ</text><text x="0" y="32" fill="#00ff41" opacity="0.55">ﾎ</text><text x="0" y="48" fill="#00ff41" opacity="0.4">ﾍ</text><text x="0" y="64" fill="#00ff41" opacity="0.28">ｼ</text><text x="0" y="80" fill="#00ff41" opacity="0.18">ﾈ</text><text x="0" y="96" fill="#00ff41" opacity="0.1">ｲ</text><animateTransform attributeName="transform" attributeType="XML" type="translate" values="0,-140; 0,200" dur="6.34s" begin="-0.22s" repeatCount="indefinite"/></g>
<g transform="translate(456,-99)"><text x="0" y="0" fill="#e6ffe6" opacity="1.0">ｿ</text><text x="0" y="16" fill="#00ff41" opacity="0.75">ﾌ</text><text x="0" y="32" fill="#00ff41" opacity="0.55">ﾁ</text><text x="0" y="48" fill="#00ff41" opacity="0.4">ﾊ</text><text x="0" y="64" fill="#00ff41" opacity="0.28">ﾛ</text><text x="0" y="80" fill="#00ff41" opacity="0.18">ﾝ</text><text x="0" y="96" fill="#00ff41" opacity="0.1">ﾒ</text><animateTransform attributeName="transform" attributeType="XML" type="translate" values="0,-140; 0,200" dur="3.66s" begin="-6.98s" repeatCount="indefinite"/></g>
<g transform="translate(472,-48)"><text x="0" y="0" fill="#e6ffe6" opacity="1.0">ﾁ</text><text x="0" y="16" fill="#00ff41" opacity="0.75">ｼ</text><text x="0" y="32" fill="#00ff41" opacity="0.55">ｲ</text><text x="0" y="48" fill="#00ff41" opacity="0.4">ﾔ</text><text x="0" y="64" fill="#00ff41" opacity="0.28">ﾑ</text><text x="0" y="80" fill="#00ff41" opacity="0.18">ｲ</text><text x="0" y="96" fill="#00ff41" opacity="0.1">ﾃ</text><animateTransform attributeName="transform" attributeType="XML" type="translate" values="0,-140; 0,200" dur="5.65s" begin="-3.59s" repeatCount="indefinite"/></g>
<g transform="translate(488,-128)"><text x="0" y="0" fill="#e6ffe6" opacity="1.0">ﾐ</text><text x="0" y="16" fill="#00ff41" opacity="0.75">ｹ</text><text x="0" y="32" fill="#00ff41" opacity="0.55">ｲ</text><text x="0" y="48" fill="#00ff41" opacity="0.4">ﾏ</text><text x="0" y="64" fill="#00ff41" opacity="0.28">ｴ</text><text x="0" y="80" fill="#00ff41" opacity="0.18">ｺ</text><text x="0" y="96" fill="#00ff41" opacity="0.1">ｳ</text><animateTransform attributeName="transform" attributeType="XML" type="translate" values="0,-140; 0,200" dur="3.23s" begin="-2.91s" repeatCount="indefinite"/></g>
<g transform="translate(504,-60)"><text x="0" y="0" fill="#e6ffe6" opacity="1.0">ﾈ</text><text x="0" y="16" fill="#00ff41" opacity="0.75">ｶ</text><text x="0" y="32" fill="#00ff41" opacity="0.55">ﾓ</text><text x="0" y="48" fill="#00ff41" opacity="0.4">ｾ</text><text x="0" y="64" fill="#00ff41" opacity="0.28">ﾔ</text><text x="0" y="80" fill="#00ff41" opacity="0.18">ﾕ</text><text x="0" y="96" fill="#00ff41" opacity="0.1">ｱ</text><animateTransform attributeName="transform" attributeType="XML" type="translate" values="0,-140; 0,200" dur="5.38s" begin="-2.27s" repeatCount="indefinite"/></g>
<g transform="translate(520,-149)"><text x="0" y="0" fill="#e6ffe6" opacity="1.0">ﾓ</text><text x="0" y="16" fill="#00ff41" opacity="0.75">ﾐ</text><text x="0" y="32" fill="#00ff41" opacity="0.55">ﾃ</text><text x="0" y="48" fill="#00ff41" opacity="0.4">ｿ</text><text x="0" y="64" fill="#00ff41" opacity="0.28">ｼ</text><text x="0" y="80" fill="#00ff41" opacity="0.18">ﾙ</text><text x="0" y="96" fill="#00ff41" opacity="0.1">ﾜ</text><animateTransform attributeName="transform" attributeType="XML" type="translate" values="0,-140; 0,200" dur="5.48s" begin="-4.07s" repeatCount="indefinite"/></g>
<g transform="translate(536,-33)"><text x="0" y="0" fill="#e6ffe6" opacity="1.0">ﾙ</text><text x="0" y="16" fill="#00ff41" opacity="0.75">ﾘ</text><text x="0" y="32" fill="#00ff41" opacity="0.55">ﾂ</text><text x="0" y="48" fill="#00ff41" opacity="0.4">ﾌ</text><text x="0" y="64" fill="#00ff41" opacity="0.28">ﾃ</text><text x="0" y="80" fill="#00ff41" opacity="0.18">ｳ</text><text x="0" y="96" fill="#00ff41" opacity="0.1">0</text><animateTransform attributeName="transform" attributeType="XML" type="translate" values="0,-140; 0,200" dur="4.26s" begin="-5.14s" repeatCount="indefinite"/></g>
<g transform="translate(552,-25)"><text x="0" y="0" fill="#e6ffe6" opacity="1.0">ｳ</text><text x="0" y="16" fill="#00ff41" opacity="0.75">ﾑ</text><text x="0" y="32" fill="#00ff41" opacity="0.55">ｼ</text><text x="0" y="48" fill="#00ff41" opacity="0.4">ﾏ</text><text x="0" y="64" fill="#00ff41" opacity="0.28">ｿ</text><text x="0" y="80" fill="#00ff41" opacity="0.18">ｷ</text><text x="0" y="96" fill="#00ff41" opacity="0.1">ﾅ</text><animateTransform attributeName="transform" attributeType="XML" type="translate" values="0,-140; 0,200" dur="4.83s" begin="-0.01s" repeatCount="indefinite"/></g>
<g transform="translate(568,-94)"><text x="0" y="0" fill="#e6ffe6" opacity="1.0">ﾁ</text><text x="0" y="16" fill="#00ff41" opacity="0.75">ｹ</text><text x="0" y="32" fill="#00ff41" opacity="0.55">ﾋ</text><text x="0" y="48" fill="#00ff41" opacity="0.4">ﾑ</text><text x="0" y="64" fill="#00ff41" opacity="0.28">ﾜ</text><text x="0" y="80" fill="#00ff41" opacity="0.18">ﾂ</text><text x="0" y="96" fill="#00ff41" opacity="0.1">ﾖ</text><animateTransform attributeName="transform" attributeType="XML" type="translate" values="0,-140; 0,200" dur="6.52s" begin="-0.85s" repeatCount="indefinite"/></g>
<g transform="translate(584,-135)"><text x="0" y="0" fill="#e6ffe6" opacity="1.0">0</text><text x="0" y="16" fill="#00ff41" opacity="0.75">ﾙ</text><text x="0" y="32" fill="#00ff41" opacity="0.55">ﾒ</text><text x="0" y="48" fill="#00ff41" opacity="0.4">ﾂ</text><text x="0" y="64" fill="#00ff41" opacity="0.28">ﾙ</text><text x="0" y="80" fill="#00ff41" opacity="0.18">ｵ</text><text x="0" y="96" fill="#00ff41" opacity="0.1">ｷ</text><animateTransform attributeName="transform" attributeType="XML" type="translate" values="0,-140; 0,200" dur="6.94s" begin="-1.35s" repeatCount="indefinite"/></g>
<g transform="translate(600,-141)"><text x="0" y="0" fill="#e6ffe6" opacity="1.0">ｸ</text><text x="0" y="16" fill="#00ff41" opacity="0.75">ﾀ</text><text x="0" y="32" fill="#00ff41" opacity="0.55">ﾁ</text><text x="0" y="48" fill="#00ff41" opacity="0.4">ﾕ</text><text x="0" y="64" fill="#00ff41" opacity="0.28">ｼ</text><text x="0" y="80" fill="#00ff41" opacity="0.18">ﾜ</text><text x="0" y="96" fill="#00ff41" opacity="0.1">ﾄ</text><animateTransform attributeName="transform" attributeType="XML" type="translate" values="0,-140; 0,200" dur="4.06s" begin="-0.77s" repeatCount="indefinite"/></g>
<g transform="translate(616,-67)"><text x="0" y="0" fill="#e6ffe6" opacity="1.0">ﾏ</text><text x="0" y="16" fill="#00ff41" opacity="0.75">ﾎ</text><text x="0" y="32" fill="#00ff41" opacity="0.55">ｿ</text><text x="0" y="48" fill="#00ff41" opacity="0.4">ｲ</text><text x="0" y="64" fill="#00ff41" opacity="0.28">ｴ</text><text x="0" y="80" fill="#00ff41" opacity="0.18">ﾗ</text><text x="0" y="96" fill="#00ff41" opacity="0.1">ﾊ</text><animateTransform attributeName="transform" attributeType="XML" type="translate" values="0,-140; 0,200" dur="3.81s" begin="-2.56s" repeatCount="indefinite"/></g>
<g transform="translate(632,-85)"><text x="0" y="0" fill="#e6ffe6" opacity="1.0">ｷ</text><text x="0" y="16" fill="#00ff41" opacity="0.75">ﾗ</text><text x="0" y="32" fill="#00ff41" opacity="0.55">ｿ</text><text x="0" y="48" fill="#00ff41" opacity="0.4">ｹ</text><text x="0" y="64" fill="#00ff41" opacity="0.28">ﾋ</text><text x="0" y="80" fill="#00ff41" opacity="0.18">ﾒ</text><text x="0" y="96" fill="#00ff41" opacity="0.1">ﾜ</text><animateTransform attributeName="transform" attributeType="XML" type="translate" values="0,-140; 0,200" dur="6.32s" begin="-6.69s" repeatCount="indefinite"/></g>
<g transform="translate(648,-19)"><text x="0" y="0" fill="#e6ffe6" opacity="1.0">ﾛ</text><text x="0" y="16" fill="#00ff41" opacity="0.75">ｸ</text><text x="0" y="32" fill="#00ff41" opacity="0.55">ﾑ</text><text x="0" y="48" fill="#00ff41" opacity="0.4">ｱ</text><text x="0" y="64" fill="#00ff41" opacity="0.28">ﾆ</text><text x="0" y="80" fill="#00ff41" opacity="0.18">ﾔ</text><text x="0" y="96" fill="#00ff41" opacity="0.1">ﾒ</text><animateTransform attributeName="transform" attributeType="XML" type="translate" values="0,-140; 0,200" dur="4.71s" begin="-6.93s" repeatCount="indefinite"/></g>
<g transform="translate(664,-78)"><text x="0" y="0" fill="#e6ffe6" opacity="1.0">ﾆ</text><text x="0" y="16" fill="#00ff41" opacity="0.75">ｱ</text><text x="0" y="32" fill="#00ff41" opacity="0.55">ﾅ</text><text x="0" y="48" fill="#00ff41" opacity="0.4">ｼ</text><text x="0" y="64" fill="#00ff41" opacity="0.28">ﾚ</text><text x="0" y="80" fill="#00ff41" opacity="0.18">ｾ</text><text x="0" y="96" fill="#00ff41" opacity="0.1">ﾙ</text><animateTransform attributeName="transform" attributeType="XML" type="translate" values="0,-140; 0,200" dur="3.59s" begin="-6.11s" repeatCount="indefinite"/></g>
<g transform="translate(680,-104)"><text x="0" y="0" fill="#e6ffe6" opacity="1.0">ﾖ</text><text x="0" y="16" fill="#00ff41" opacity="0.75">ｸ</text><text x="0" y="32" fill="#00ff41" opacity="0.55">ｾ</text><text x="0" y="48" fill="#00ff41" opacity="0.4">ｹ</text><text x="0" y="64" fill="#00ff41" opacity="0.28">ｺ</text><text x="0" y="80" fill="#00ff41" opacity="0.18">ﾉ</text><text x="0" y="96" fill="#00ff41" opacity="0.1">1</text><animateTransform attributeName="transform" attributeType="XML" type="translate" values="0,-140; 0,200" dur="3.41s" begin="-1.54s" repeatCount="indefinite"/></g>
<g transform="translate(696,-105)"><text x="0" y="0" fill="#e6ffe6" opacity="1.0">ﾙ</text><text x="0" y="16" fill="#00ff41" opacity="0.75">ｾ</text><text x="0" y="32" fill="#00ff41" opacity="0.55">ﾀ</text><text x="0" y="48" fill="#00ff41" opacity="0.4">ｹ</text><text x="0" y="64" fill="#00ff41" opacity="0.28">ﾛ</text><text x="0" y="80" fill="#00ff41" opacity="0.18">ｵ</text><text x="0" y="96" fill="#00ff41" opacity="0.1">ﾇ</text><animateTransform attributeName="transform" attributeType="XML" type="translate" values="0,-140; 0,200" dur="3.72s" begin="-0.53s" repeatCount="indefinite"/></g>
<g transform="translate(712,-56)"><text x="0" y="0" fill="#e6ffe6" opacity="1.0">ｻ</text><text x="0" y="16" fill="#00ff41" opacity="0.75">ﾌ</text><text x="0" y="32" fill="#00ff41" opacity="0.55">ﾅ</text><text x="0" y="48" fill="#00ff41" opacity="0.4">ﾂ</text><text x="0" y="64" fill="#00ff41" opacity="0.28">ｽ</text><text x="0" y="80" fill="#00ff41" opacity="0.18">ｽ</text><text x="0" y="96" fill="#00ff41" opacity="0.1">1</text><animateTransform attributeName="transform" attributeType="XML" type="translate" values="0,-140; 0,200" dur="6.49s" begin="-0.99s" repeatCount="indefinite"/></g>
<g transform="translate(728,-71)"><text x="0" y="0" fill="#e6ffe6" opacity="1.0">ｳ</text><text x="0" y="16" fill="#00ff41" opacity="0.75">ﾀ</text><text x="0" y="32" fill="#00ff41" opacity="0.55">ﾅ</text><text x="0" y="48" fill="#00ff41" opacity="0.4">ﾘ</text><text x="0" y="64" fill="#00ff41" opacity="0.28">ﾏ</text><text x="0" y="80" fill="#00ff41" opacity="0.18">ﾈ</text><text x="0" y="96" fill="#00ff41" opacity="0.1">ﾚ</text><animateTransform attributeName="transform" attributeType="XML" type="translate" values="0,-140; 0,200" dur="5.64s" begin="-4.21s" repeatCount="indefinite"/></g>
<g transform="translate(744,-7)"><text x="0" y="0" fill="#e6ffe6" opacity="1.0">ｶ</text><text x="0" y="16" fill="#00ff41" opacity="0.75">ｿ</text><text x="0" y="32" fill="#00ff41" opacity="0.55">ｺ</text><text x="0" y="48" fill="#00ff41" opacity="0.4">ﾔ</text><text x="0" y="64" fill="#00ff41" opacity="0.28">ｿ</text><text x="0" y="80" fill="#00ff41" opacity="0.18">ｱ</text><text x="0" y="96" fill="#00ff41" opacity="0.1">ｵ</text><animateTransform attributeName="transform" attributeType="XML" type="translate" values="0,-140; 0,200" dur="6.92s" begin="-3.25s" repeatCount="indefinite"/></g>
<g transform="translate(760,-80)"><text x="0" y="0" fill="#e6ffe6" opacity="1.0">ﾊ</text><text x="0" y="16" fill="#00ff41" opacity="0.75">ﾕ</text><text x="0" y="32" fill="#00ff41" opacity="0.55">ﾏ</text><text x="0" y="48" fill="#00ff41" opacity="0.4">ｶ</text><text x="0" y="64" fill="#00ff41" opacity="0.28">ﾇ</text><text x="0" y="80" fill="#00ff41" opacity="0.18">ﾓ</text><text x="0" y="96" fill="#00ff41" opacity="0.1">ｻ</text><animateTransform attributeName="transform" attributeType="XML" type="translate" values="0,-140; 0,200" dur="5.39s" begin="-4.58s" repeatCount="indefinite"/></g>
<g transform="translate(776,0)"><text x="0" y="0" fill="#e6ffe6" opacity="1.0">ﾐ</text><text x="0" y="16" fill="#00ff41" opacity="0.75">ﾑ</text><text x="0" y="32" fill="#00ff41" opacity="0.55">ﾚ</text><text x="0" y="48" fill="#00ff41" opacity="0.4">ﾝ</text><text x="0" y="64" fill="#00ff41" opacity="0.28">ﾙ</text><text x="0" y="80" fill="#00ff41" opacity="0.18">ｻ</text><text x="0" y="96" fill="#00ff41" opacity="0.1">ﾆ</text><animateTransform attributeName="transform" attributeType="XML" type="translate" values="0,-140; 0,200" dur="4.02s" begin="-2.04s" repeatCount="indefinite"/></g>
<g transform="translate(792,-84)"><text x="0" y="0" fill="#e6ffe6" opacity="1.0">ﾖ</text><text x="0" y="16" fill="#00ff41" opacity="0.75">ﾃ</text><text x="0" y="32" fill="#00ff41" opacity="0.55">ﾙ</text><text x="0" y="48" fill="#00ff41" opacity="0.4">ｶ</text><text x="0" y="64" fill="#00ff41" opacity="0.28">ﾝ</text><text x="0" y="80" fill="#00ff41" opacity="0.18">ﾂ</text><text x="0" y="96" fill="#00ff41" opacity="0.1">ﾏ</text><animateTransform attributeName="transform" attributeType="XML" type="translate" values="0,-140; 0,200" dur="4.73s" begin="-0.36s" repeatCount="indefinite"/></g>
</svg>